<?xml version="1.0" encoding="UTF-8"?>
<!DOCTYPE svg PUBLIC "-//W3C//DTD SVG 1.1//EN" "http://www.w3.org/Graphics/SVG/1.1/DTD/svg11.dtd">
<!-- Creator: CorelDRAW 2019 (64-Bit) -->
<svg xmlns="http://www.w3.org/2000/svg" xml:space="preserve" width="50.8cm" height="28.575cm" version="1.1" style="shape-rendering:geometricPrecision; text-rendering:geometricPrecision; image-rendering:optimizeQuality; fill-rule:evenodd; clip-rule:evenodd"
viewBox="0 0 50.79998 28.575"
 xmlns:xlink="http://www.w3.org/1999/xlink"
 xmlns:xodm="http://www.corel.com/coreldraw/odm/2003">
 <defs>
  <style type="text/css">
   <![CDATA[
    .str0 {stroke:#8D390B;stroke-width:0.07937;stroke-miterlimit:22.9256}
    .str1 {stroke:#6E2700;stroke-width:0.05292;stroke-miterlimit:22.9256}
    .fil52 {fill:none}
    .fil55 {fill:#CFB99B}
    .fil54 {fill:#CFB99B}
    .fil51 {fill:#DFC4A4}
    .fil50 {fill:#DFC4A5}
    .fil49 {fill:#DFC5A5}
    .fil48 {fill:#E0C5A5}
    .fil47 {fill:#E0C5A6}
    .fil46 {fill:#E0C6A6}
    .fil45 {fill:#E1C6A6}
    .fil44 {fill:#E1C6A7}
    .fil43 {fill:#E1C7A7}
    .fil42 {fill:#E1C7A8}
    .fil41 {fill:#E2C7A8}
    .fil40 {fill:#E2C8A8}
    .fil39 {fill:#E2C8A9}
    .fil38 {fill:#E2C9A9}
    .fil37 {fill:#E3C9A9}
    .fil36 {fill:#E3C9AA}
    .fil35 {fill:#E3CAAA}
    .fil34 {fill:#E4CAAA}
    .fil33 {fill:#E4CAAB}
    .fil32 {fill:#E4CBAB}
    .fil31 {fill:#E5CBAC}
    .fil30 {fill:#E5CCAC}
    .fil29 {fill:#E5CCAD}
    .fil28 {fill:#E6CCAD}
    .fil0 {fill:#E6CDAD}
    .fil1 {fill:#E6CDAE}
    .fil2 {fill:#E6CEAE}
    .fil3 {fill:#E7CEAE}
    .fil4 {fill:#E7CEAF}
    .fil5 {fill:#E7CFAF}
    .fil6 {fill:#E8CFB0}
    .fil7 {fill:#E8D0B0}
    .fil8 {fill:#E8D0B1}
    .fil9 {fill:#E9D0B1}
    .fil10 {fill:#E9D1B1}
    .fil11 {fill:#E9D1B2}
    .fil12 {fill:#EAD1B2}
    .fil13 {fill:#EAD2B2}
    .fil14 {fill:#EAD2B3}
    .fil15 {fill:#EAD3B3}
    .fil16 {fill:#EBD3B3}
    .fil17 {fill:#EBD3B4}
    .fil18 {fill:#EBD4B4}
    .fil19 {fill:#EBD4B5}
    .fil20 {fill:#ECD4B5}
    .fil21 {fill:#ECD5B5}
    .fil22 {fill:#ECD5B6}
    .fil23 {fill:#EDD5B6}
    .fil24 {fill:#EDD6B6}
    .fil25 {fill:#EDD6B7}
    .fil26 {fill:#EED6B7}
    .fil27 {fill:#EED7B8}
    .fil53 {fill:#6E2700;fill-rule:nonzero}
   ]]>
  </style>
    <clipPath id="id0">
     <path d="M17.26405 6.38023l10.91269 -0.08374 3.02723 1.45636c-0.02574,-0.01238 -0.12116,1.58283 -0.20075,3.90905l-0.60414 0.14359 0.45841 0.27728 -0.25724 0.24603 0.37721 0.13211c-0.07541,2.49101 -0.1252,5.62351 -0.06243,8.50928l-0.5767 0.18123 0.58522 0.18102c0.03982,1.57549 0.11482,3.06508 0.2395,4.32042 -3.63761,0.21357 -7.27264,-0.04926 -12.16925,0.23662l-1.62527 -2.09483c0.05449,-1.14032 0.09336,-2.2671 0.11891,-3.38451l0.41239 -0.11635 -0.20791 -0.26756 0.13275 -0.21303 -0.32073 -0.22705c0.06658,-3.87405 -0.02175,-7.64678 -0.17029,-11.49274l1.03075 -0.34361 -1.04452 -0.00928c-0.01787,-0.45226 -0.03653,-0.90559 -0.05583,-1.36029z"/>
    </clipPath>
 </defs>
 <g id="Capa_x0020_1">
  <metadata id="CorelCorpID_0Corel-Layer"/>
  <g>
   <g style="clip-path:url(#id0)">
    <polygon class="fil0" points="16.84092,6.39306 16.89961,6.39128 17.4993,26.17042 17.44062,26.1722 "/>
    <polygon id="1" class="fil1" points="16.88004,6.39187 16.93873,6.39009 17.53843,26.16923 17.47974,26.17101 "/>
    <polygon id="2" class="fil1" points="16.91917,6.39069 16.97786,6.38891 17.57755,26.16805 17.51887,26.16983 "/>
    <polygon id="3" class="fil1" points="16.95829,6.3895 17.01698,6.38772 17.61668,26.16686 17.55799,26.16864 "/>
    <polygon id="4" class="fil1" points="16.99742,6.38831 17.05611,6.38653 17.6558,26.16567 17.59712,26.16745 "/>
    <polygon id="5" class="fil1" points="17.03655,6.38713 17.09523,6.38535 17.69493,26.16449 17.63624,26.16627 "/>
    <polygon id="6" class="fil1" points="17.07567,6.38594 17.13436,6.38416 17.73405,26.1633 17.67537,26.16508 "/>
    <polygon id="7" class="fil2" points="17.1148,6.38476 17.17348,6.38298 17.77318,26.16211 17.71449,26.16389 "/>
    <polygon id="8" class="fil2" points="17.15392,6.38357 17.21261,6.38179 17.8123,26.16093 17.75362,26.16271 "/>
    <polygon id="9" class="fil3" points="17.19305,6.38238 17.25173,6.3806 17.85143,26.15974 17.79274,26.16152 "/>
    <polygon id="10" class="fil3" points="17.23217,6.3812 17.29086,6.37942 17.89056,26.15856 17.83187,26.16034 "/>
    <polygon id="11" class="fil3" points="17.2713,6.38001 17.32998,6.37823 17.92968,26.15737 17.87099,26.15915 "/>
    <polygon id="12" class="fil3" points="17.31042,6.37882 17.36911,6.37704 17.96881,26.15618 17.91012,26.15796 "/>
    <polygon id="13" class="fil4" points="17.34955,6.37764 17.40824,6.37586 18.00793,26.155 17.94924,26.15678 "/>
    <polygon id="14" class="fil4" points="17.38867,6.37645 17.44736,6.37467 18.04706,26.15381 17.98837,26.15559 "/>
    <polygon id="15" class="fil4" points="17.4278,6.37527 17.48649,6.37349 18.08618,26.15262 18.02749,26.1544 "/>
    <polygon id="16" class="fil4" points="17.46692,6.37408 17.52561,6.3723 18.12531,26.15144 18.06662,26.15322 "/>
    <polygon id="17" class="fil4" points="17.50605,6.37289 17.56474,6.37111 18.16443,26.15025 18.10574,26.15203 "/>
    <polygon id="18" class="fil4" points="17.54517,6.37171 17.60386,6.36993 18.20356,26.14907 18.14487,26.15085 "/>
    <polygon id="19" class="fil4" points="17.5843,6.37052 17.64299,6.36874 18.24268,26.14788 18.18399,26.14966 "/>
    <polygon id="20" class="fil5" points="17.62342,6.36933 17.68211,6.36755 18.28181,26.14669 18.22312,26.14847 "/>
    <polygon id="21" class="fil5" points="17.66255,6.36815 17.72124,6.36637 18.32093,26.14551 18.26225,26.14729 "/>
    <polygon id="22" class="fil5" points="17.70167,6.36696 17.76036,6.36518 18.36006,26.14432 18.30137,26.1461 "/>
    <polygon id="23" class="fil5" points="17.7408,6.36578 17.79949,6.364 18.39918,26.14313 18.3405,26.14491 "/>
    <polygon id="24" class="fil5" points="17.77993,6.36459 17.83861,6.36281 18.43831,26.14195 18.37962,26.14373 "/>
    <polygon id="25" class="fil6" points="17.81905,6.3634 17.87774,6.36162 18.47743,26.14076 18.41875,26.14254 "/>
    <polygon id="26" class="fil6" points="17.85818,6.36222 17.91686,6.36044 18.51656,26.13958 18.45787,26.14136 "/>
    <polygon id="27" class="fil6" points="17.8973,6.36103 17.95599,6.35925 18.55568,26.13839 18.497,26.14017 "/>
    <polygon id="28" class="fil6" points="17.93643,6.35984 17.99511,6.35806 18.59481,26.1372 18.53612,26.13898 "/>
    <polygon id="29" class="fil6" points="17.97555,6.35866 18.03424,6.35688 18.63393,26.13602 18.57525,26.1378 "/>
    <polygon id="30" class="fil6" points="18.01468,6.35747 18.07336,6.35569 18.67306,26.13483 18.61437,26.13661 "/>
    <polygon id="31" class="fil6" points="18.0538,6.35629 18.11249,6.35451 18.71219,26.13364 18.6535,26.13542 "/>
    <polygon id="32" class="fil6" points="18.09293,6.3551 18.15162,6.35332 18.75131,26.13246 18.69262,26.13424 "/>
    <polygon id="33" class="fil7" points="18.13205,6.35391 18.19074,6.35213 18.79044,26.13127 18.73175,26.13305 "/>
    <polygon id="34" class="fil7" points="18.17118,6.35273 18.22987,6.35095 18.82956,26.13009 18.77087,26.13186 "/>
    <polygon id="35" class="fil7" points="18.2103,6.35154 18.26899,6.34976 18.86869,26.1289 18.81,26.13068 "/>
    <polygon id="36" class="fil7" points="18.24943,6.35035 18.30812,6.34857 18.90781,26.12771 18.84912,26.12949 "/>
    <polygon id="37" class="fil8" points="18.28855,6.34917 18.34724,6.34739 18.94694,26.12653 18.88825,26.12831 "/>
    <polygon id="38" class="fil8" points="18.32768,6.34798 18.38637,6.3462 18.98606,26.12534 18.92737,26.12712 "/>
    <polygon id="39" class="fil8" points="18.3668,6.34679 18.42549,6.34502 19.02519,26.12415 18.9665,26.12593 "/>
    <polygon id="40" class="fil8" points="18.40593,6.34561 18.46462,6.34383 19.06431,26.12297 19.00562,26.12475 "/>
    <polygon id="41" class="fil9" points="18.44505,6.34442 18.50374,6.34264 19.10344,26.12178 19.04475,26.12356 "/>
    <polygon id="42" class="fil9" points="18.48418,6.34324 18.54287,6.34146 19.14256,26.1206 19.08388,26.12237 "/>
    <polygon id="43" class="fil9" points="18.52331,6.34205 18.58199,6.34027 19.18169,26.11941 19.123,26.12119 "/>
    <polygon id="44" class="fil9" points="18.56243,6.34086 18.62112,6.33908 19.22081,26.11822 19.16213,26.12 "/>
    <polygon id="45" class="fil9" points="18.60156,6.33968 18.66024,6.3379 19.25994,26.11704 19.20125,26.11882 "/>
    <polygon id="46" class="fil10" points="18.64068,6.33849 18.69937,6.33671 19.29906,26.11585 19.24038,26.11763 "/>
    <polygon id="47" class="fil10" points="18.67981,6.3373 18.73849,6.33553 19.33819,26.11466 19.2795,26.11644 "/>
    <polygon id="48" class="fil10" points="18.71893,6.33612 18.77762,6.33434 19.37731,26.11348 19.31863,26.11526 "/>
    <polygon id="49" class="fil10" points="18.75806,6.33493 18.81674,6.33315 19.41644,26.11229 19.35775,26.11407 "/>
    <polygon id="50" class="fil11" points="18.79718,6.33375 18.85587,6.33197 19.45557,26.11111 19.39688,26.11288 "/>
    <polygon id="51" class="fil11" points="18.83631,6.33256 18.89499,6.33078 19.49469,26.10992 19.436,26.1117 "/>
    <polygon id="52" class="fil11" points="18.87543,6.33137 18.93412,6.32959 19.53382,26.10873 19.47513,26.11051 "/>
    <polygon id="53" class="fil11" points="18.91456,6.33019 18.97325,6.32841 19.57294,26.10755 19.51425,26.10933 "/>
    <polygon id="54" class="fil11" points="18.95368,6.329 19.01237,6.32722 19.61207,26.10636 19.55338,26.10814 "/>
    <polygon id="55" class="fil11" points="18.99281,6.32781 19.0515,6.32604 19.65119,26.10517 19.5925,26.10695 "/>
    <polygon id="56" class="fil11" points="19.03193,6.32663 19.09062,6.32485 19.69032,26.10399 19.63163,26.10577 "/>
    <polygon id="57" class="fil12" points="19.07106,6.32544 19.12975,6.32366 19.72944,26.1028 19.67075,26.10458 "/>
    <polygon id="58" class="fil13" points="19.11018,6.32426 19.16887,6.32248 19.76857,26.10162 19.70988,26.10339 "/>
    <polygon id="59" class="fil13" points="19.14931,6.32307 19.208,6.32129 19.80769,26.10043 19.749,26.10221 "/>
    <polygon id="60" class="fil13" points="19.18843,6.32188 19.24712,6.3201 19.84682,26.09924 19.78813,26.10102 "/>
    <polygon id="61" class="fil13" points="19.22756,6.3207 19.28625,6.31892 19.88594,26.09806 19.82726,26.09984 "/>
    <polygon id="62" class="fil14" points="19.26668,6.31951 19.32537,6.31773 19.92507,26.09687 19.86638,26.09865 "/>
    <polygon id="63" class="fil14" points="19.30581,6.31832 19.3645,6.31655 19.96419,26.09568 19.90551,26.09746 "/>
    <polygon id="64" class="fil14" points="19.34494,6.31714 19.40362,6.31536 20.00332,26.0945 19.94463,26.09628 "/>
    <polygon id="65" class="fil14" points="19.38406,6.31595 19.44275,6.31417 20.04244,26.09331 19.98376,26.09509 "/>
    <polygon id="66" class="fil14" points="19.42319,6.31477 19.48187,6.31299 20.08157,26.09213 20.02288,26.0939 "/>
    <polygon id="67" class="fil14" points="19.46231,6.31358 19.521,6.3118 20.12069,26.09094 20.06201,26.09272 "/>
    <polygon id="68" class="fil14" points="19.50144,6.31239 19.56012,6.31061 20.15982,26.08975 20.10113,26.09153 "/>
    <polygon id="69" class="fil14" points="19.54056,6.31121 19.59925,6.30943 20.19895,26.08857 20.14026,26.09035 "/>
    <polygon id="70" class="fil14" points="19.57969,6.31002 19.63837,6.30824 20.23807,26.08738 20.17938,26.08916 "/>
    <polygon id="71" class="fil15" points="19.61881,6.30883 19.6775,6.30706 20.2772,26.08619 20.21851,26.08797 "/>
    <polygon id="72" class="fil15" points="19.65794,6.30765 19.71663,6.30587 20.31632,26.08501 20.25763,26.08679 "/>
    <polygon id="73" class="fil16" points="19.69706,6.30646 19.75575,6.30468 20.35545,26.08382 20.29676,26.0856 "/>
    <polygon id="74" class="fil17" points="19.73619,6.30528 19.79488,6.3035 20.39457,26.08264 20.33588,26.08441 "/>
    <polygon id="75" class="fil17" points="19.77531,6.30409 19.834,6.30231 20.4337,26.08145 20.37501,26.08323 "/>
    <polygon id="76" class="fil17" points="19.81444,6.3029 19.87313,6.30112 20.47282,26.08026 20.41413,26.08204 "/>
    <polygon id="77" class="fil17" points="19.85356,6.30172 19.91225,6.29994 20.51195,26.07908 20.45326,26.08086 "/>
    <polygon id="78" class="fil17" points="19.89269,6.30053 19.95138,6.29875 20.55107,26.07789 20.49238,26.07967 "/>
    <polygon id="79" class="fil17" points="19.93181,6.29934 19.9905,6.29757 20.5902,26.0767 20.53151,26.07848 "/>
    <polygon id="80" class="fil17" points="19.97094,6.29816 20.02963,6.29638 20.62932,26.07552 20.57064,26.0773 "/>
    <polygon id="81" class="fil17" points="20.01006,6.29697 20.06875,6.29519 20.66845,26.07433 20.60976,26.07611 "/>
    <polygon id="82" class="fil17" points="20.04919,6.29579 20.10788,6.29401 20.70757,26.07314 20.64889,26.07492 "/>
    <polygon id="83" class="fil17" points="20.08832,6.2946 20.147,6.29282 20.7467,26.07196 20.68801,26.07374 "/>
    <polygon id="84" class="fil18" points="20.12744,6.29341 20.18613,6.29163 20.78582,26.07077 20.72714,26.07255 "/>
    <polygon id="85" class="fil18" points="20.16657,6.29223 20.22525,6.29045 20.82495,26.06959 20.76626,26.07137 "/>
    <polygon id="86" class="fil19" points="20.20569,6.29104 20.26438,6.28926 20.86407,26.0684 20.80539,26.07018 "/>
    <polygon id="87" class="fil19" points="20.24482,6.28985 20.3035,6.28807 20.9032,26.06721 20.84451,26.06899 "/>
    <polygon id="88" class="fil19" points="20.28394,6.28867 20.34263,6.28689 20.94232,26.06603 20.88364,26.06781 "/>
    <polygon id="89" class="fil20" points="20.32307,6.28748 20.38175,6.2857 20.98145,26.06484 20.92276,26.06662 "/>
    <polygon id="90" class="fil20" points="20.36219,6.2863 20.42088,6.28452 21.02058,26.06365 20.96189,26.06543 "/>
    <polygon id="91" class="fil20" points="20.40132,6.28511 20.46001,6.28333 21.0597,26.06247 21.00101,26.06425 "/>
    <polygon id="92" class="fil20" points="20.44044,6.28392 20.49913,6.28214 21.09883,26.06128 21.04014,26.06306 "/>
    <polygon id="93" class="fil20" points="20.47957,6.28274 20.53826,6.28096 21.13795,26.0601 21.07926,26.06188 "/>
    <polygon id="94" class="fil20" points="20.51869,6.28155 20.57738,6.27977 21.17708,26.05891 21.11839,26.06069 "/>
    <polygon id="95" class="fil20" points="20.55782,6.28036 20.61651,6.27858 21.2162,26.05772 21.15751,26.0595 "/>
    <polygon id="96" class="fil20" points="20.59694,6.27918 20.65563,6.2774 21.25533,26.05654 21.19664,26.05832 "/>
    <polygon id="97" class="fil21" points="20.63607,6.27799 20.69476,6.27621 21.29445,26.05535 21.23576,26.05713 "/>
    <polygon id="98" class="fil22" points="20.67519,6.27681 20.73388,6.27503 21.33358,26.05416 21.27489,26.05594 "/>
    <polygon id="99" class="fil22" points="20.71432,6.27562 20.77301,6.27384 21.3727,26.05298 21.31401,26.05476 "/>
    <polygon id="100" class="fil22" points="20.75344,6.27443 20.81213,6.27265 21.41183,26.05179 21.35314,26.05357 "/>
    <polygon id="101" class="fil22" points="20.79257,6.27325 20.85126,6.27147 21.45095,26.05061 21.39227,26.05239 "/>
    <polygon id="102" class="fil22" points="20.8317,6.27206 20.89038,6.27028 21.49008,26.04942 21.43139,26.0512 "/>
    <polygon id="103" class="fil22" points="20.87082,6.27087 20.92951,6.26909 21.5292,26.04823 21.47052,26.05001 "/>
    <polygon id="104" class="fil22" points="20.90995,6.26969 20.96863,6.26791 21.56833,26.04705 21.50964,26.04883 "/>
    <polygon id="105" class="fil23" points="20.94907,6.2685 21.00776,6.26672 21.60745,26.04586 21.54877,26.04764 "/>
    <polygon id="106" class="fil23" points="20.9882,6.26732 21.04688,6.26554 21.64658,26.04467 21.58789,26.04645 "/>
    <polygon id="107" class="fil23" points="21.02732,6.26613 21.08601,6.26435 21.6857,26.04349 21.62702,26.04527 "/>
    <polygon id="108" class="fil23" points="21.06645,6.26494 21.12513,6.26316 21.72483,26.0423 21.66614,26.04408 "/>
    <polygon id="109" class="fil24" points="21.10557,6.26376 21.16426,6.26198 21.76396,26.04112 21.70527,26.0429 "/>
    <polygon id="110" class="fil25" points="21.1447,6.26257 21.20339,6.26079 21.80308,26.03993 21.74439,26.04171 "/>
    <polygon id="111" class="fil25" points="21.18382,6.26138 21.24251,6.2596 21.84221,26.03874 21.78352,26.04052 "/>
    <polygon id="112" class="fil25" points="21.22295,6.2602 21.28164,6.25842 21.88133,26.03756 21.82264,26.03934 "/>
    <polygon id="113" class="fil25" points="21.26207,6.25901 21.32076,6.25723 21.92046,26.03637 21.86177,26.03815 "/>
    <polygon id="114" class="fil25" points="21.3012,6.25783 21.35989,6.25605 21.95958,26.03518 21.90089,26.03696 "/>
    <polygon id="115" class="fil25" points="21.34032,6.25664 21.39901,6.25486 21.99871,26.034 21.94002,26.03578 "/>
    <polygon id="116" class="fil25" points="21.37945,6.25545 21.43814,6.25367 22.03783,26.03281 21.97914,26.03459 "/>
    <polygon id="117" class="fil25" points="21.41857,6.25427 21.47726,6.25249 22.07696,26.03163 22.01827,26.03341 "/>
    <polygon id="118" class="fil25" points="21.4577,6.25308 21.51639,6.2513 22.11608,26.03044 22.05739,26.03222 "/>
    <polygon id="119" class="fil25" points="21.49682,6.25189 21.55551,6.25011 22.15521,26.02925 22.09652,26.03103 "/>
    <polygon id="120" class="fil25" points="21.53595,6.25071 21.59464,6.24893 22.19433,26.02807 22.13565,26.02985 "/>
    <polygon id="121" class="fil26" points="21.57507,6.24952 21.63376,6.24774 22.23346,26.02688 22.17477,26.02866 "/>
    <polygon id="122" class="fil27" points="21.6142,6.24834 21.67289,6.24656 22.27258,26.02569 22.2139,26.02747 "/>
    <polygon id="123" class="fil27" points="21.65333,6.24715 21.71201,6.24537 22.31171,26.02451 22.25302,26.02629 "/>
    <polygon id="124" class="fil27" points="21.69245,6.24596 21.75114,6.24418 22.35083,26.02332 22.29215,26.0251 "/>
    <polygon id="125" class="fil27" points="21.73158,6.24478 21.79026,6.243 22.38996,26.02214 22.33127,26.02392 "/>
    <polygon id="126" class="fil27" points="21.7707,6.24359 21.82939,6.24181 22.42908,26.02095 22.3704,26.02273 "/>
    <polygon id="127" class="fil27" points="21.80983,6.2424 21.86851,6.24062 22.46821,26.01976 22.40952,26.02154 "/>
    <polygon id="128" class="fil27" points="21.84895,6.24122 21.90764,6.23944 22.50734,26.01858 22.44865,26.02036 "/>
    <polygon id="129" class="fil27" points="21.88808,6.24003 21.94676,6.23825 22.54646,26.01739 22.48777,26.01917 "/>
    <polygon id="130" class="fil27" points="21.9272,6.23885 21.98589,6.23707 22.58559,26.0162 22.5269,26.01798 "/>
    <polygon id="131" class="fil27" points="21.96633,6.23766 22.02502,6.23588 22.62471,26.01502 22.56602,26.0168 "/>
    <polygon id="132" class="fil27" points="22.00545,6.23647 22.06414,6.23469 22.66384,26.01383 22.60515,26.01561 "/>
    <polygon id="133" class="fil27" points="22.04458,6.23529 22.10327,6.23351 22.70296,26.01265 22.64427,26.01443 "/>
    <polygon id="134" class="fil27" points="22.0837,6.2341 22.14239,6.23232 22.74209,26.01146 22.6834,26.01324 "/>
    <polygon id="135" class="fil26" points="22.12283,6.23291 22.18152,6.23113 22.78121,26.01027 22.72252,26.01205 "/>
    <polygon id="136" class="fil25" points="22.16195,6.23173 22.22064,6.22995 22.82034,26.00909 22.76165,26.01087 "/>
    <polygon id="137" class="fil25" points="22.20108,6.23054 22.25977,6.22876 22.85946,26.0079 22.80077,26.00968 "/>
    <polygon id="138" class="fil25" points="22.2402,6.22936 22.29889,6.22758 22.89859,26.00671 22.8399,26.00849 "/>
    <polygon id="139" class="fil25" points="22.27933,6.22817 22.33802,6.22639 22.93771,26.00553 22.87903,26.00731 "/>
    <polygon id="140" class="fil25" points="22.31845,6.22698 22.37714,6.2252 22.97684,26.00434 22.91815,26.00612 "/>
    <polygon id="141" class="fil25" points="22.35758,6.2258 22.41627,6.22402 23.01596,26.00316 22.95728,26.00493 "/>
    <polygon id="142" class="fil25" points="22.39671,6.22461 22.45539,6.22283 23.05509,26.00197 22.9964,26.00375 "/>
    <polygon id="143" class="fil25" points="22.43583,6.22342 22.49452,6.22164 23.09421,26.00078 23.03553,26.00256 "/>
    <polygon id="144" class="fil25" points="22.47496,6.22224 22.53364,6.22046 23.13334,25.9996 23.07465,26.00138 "/>
    <polygon id="145" class="fil25" points="22.51408,6.22105 22.57277,6.21927 23.17246,25.99841 23.11378,26.00019 "/>
    <polygon id="146" class="fil25" points="22.55321,6.21986 22.61189,6.21809 23.21159,25.99722 23.1529,25.999 "/>
    <polygon id="147" class="fil24" points="22.59233,6.21868 22.65102,6.2169 23.25072,25.99604 23.19203,25.99782 "/>
    <polygon id="148" class="fil23" points="22.63146,6.21749 22.69014,6.21571 23.28984,25.99485 23.23115,25.99663 "/>
    <polygon id="149" class="fil23" points="22.67058,6.21631 22.72927,6.21453 23.32897,25.99367 23.27028,25.99544 "/>
    <polygon id="150" class="fil23" points="22.70971,6.21512 22.7684,6.21334 23.36809,25.99248 23.3094,25.99426 "/>
    <polygon id="151" class="fil23" points="22.74883,6.21393 22.80752,6.21215 23.40722,25.99129 23.34853,25.99307 "/>
    <polygon id="152" class="fil22" points="22.78796,6.21275 22.84665,6.21097 23.44634,25.99011 23.38765,25.99189 "/>
    <polygon id="153" class="fil22" points="22.82708,6.21156 22.88577,6.20978 23.48547,25.98892 23.42678,25.9907 "/>
    <polygon id="154" class="fil22" points="22.86621,6.21037 22.9249,6.2086 23.52459,25.98773 23.4659,25.98951 "/>
    <polygon id="155" class="fil22" points="22.90533,6.20919 22.96402,6.20741 23.56372,25.98655 23.50503,25.98833 "/>
    <polygon id="156" class="fil22" points="22.94446,6.208 23.00315,6.20622 23.60284,25.98536 23.54415,25.98714 "/>
    <polygon id="157" class="fil22" points="22.98358,6.20682 23.04227,6.20504 23.64197,25.98418 23.58328,25.98595 "/>
    <polygon id="158" class="fil22" points="23.02271,6.20563 23.0814,6.20385 23.68109,25.98299 23.6224,25.98477 "/>
    <polygon id="159" class="fil21" points="23.06183,6.20444 23.12052,6.20266 23.72022,25.9818 23.66153,25.98358 "/>
    <polygon id="160" class="fil20" points="23.10096,6.20326 23.15965,6.20148 23.75934,25.98062 23.70066,25.9824 "/>
    <polygon id="161" class="fil20" points="23.14009,6.20207 23.19877,6.20029 23.79847,25.97943 23.73978,25.98121 "/>
    <polygon id="162" class="fil20" points="23.17921,6.20088 23.2379,6.19911 23.83759,25.97824 23.77891,25.98002 "/>
    <polygon id="163" class="fil20" points="23.21834,6.1997 23.27702,6.19792 23.87672,25.97706 23.81803,25.97884 "/>
    <polygon id="164" class="fil20" points="23.25746,6.19851 23.31615,6.19673 23.91584,25.97587 23.85716,25.97765 "/>
    <polygon id="165" class="fil20" points="23.29659,6.19733 23.35527,6.19555 23.95497,25.97469 23.89628,25.97646 "/>
    <polygon id="166" class="fil20" points="23.33571,6.19614 23.3944,6.19436 23.99409,25.9735 23.93541,25.97528 "/>
    <polygon id="167" class="fil20" points="23.37484,6.19495 23.43352,6.19317 24.03322,25.97231 23.97453,25.97409 "/>
    <polygon id="168" class="fil19" points="23.41396,6.19377 23.47265,6.19199 24.07235,25.97113 24.01366,25.97291 "/>
    <polygon id="169" class="fil19" points="23.45309,6.19258 23.51178,6.1908 24.11147,25.96994 24.05278,25.97172 "/>
    <polygon id="170" class="fil19" points="23.49221,6.19139 23.5509,6.18962 24.1506,25.96875 24.09191,25.97053 "/>
    <polygon id="171" class="fil18" points="23.53134,6.19021 23.59003,6.18843 24.18972,25.96757 24.13103,25.96935 "/>
    <polygon id="172" class="fil18" points="23.57046,6.18902 23.62915,6.18724 24.22885,25.96638 24.17016,25.96816 "/>
    <polygon id="173" class="fil17" points="23.60959,6.18784 23.66828,6.18606 24.26797,25.9652 24.20928,25.96697 "/>
    <polygon id="174" class="fil17" points="23.64871,6.18665 23.7074,6.18487 24.3071,25.96401 24.24841,25.96579 "/>
    <polygon id="175" class="fil17" points="23.68784,6.18546 23.74653,6.18368 24.34622,25.96282 24.28753,25.9646 "/>
    <polygon id="176" class="fil17" points="23.72696,6.18428 23.78565,6.1825 24.38535,25.96164 24.32666,25.96342 "/>
    <polygon id="177" class="fil17" points="23.76609,6.18309 23.82478,6.18131 24.42447,25.96045 24.36578,25.96223 "/>
    <polygon id="178" class="fil17" points="23.80521,6.1819 23.8639,6.18013 24.4636,25.95926 24.40491,25.96104 "/>
    <polygon id="179" class="fil17" points="23.84434,6.18072 23.90303,6.17894 24.50272,25.95808 24.44404,25.95986 "/>
    <polygon id="180" class="fil17" points="23.88347,6.17953 23.94215,6.17775 24.54185,25.95689 24.48316,25.95867 "/>
    <polygon id="181" class="fil17" points="23.92259,6.17835 23.98128,6.17657 24.58097,25.95571 24.52229,25.95748 "/>
    <polygon id="182" class="fil17" points="23.96172,6.17716 24.0204,6.17538 24.6201,25.95452 24.56141,25.9563 "/>
    <polygon id="183" class="fil16" points="24.00084,6.17597 24.05953,6.17419 24.65922,25.95333 24.60054,25.95511 "/>
    <polygon id="184" class="fil15" points="24.03997,6.17479 24.09865,6.17301 24.69835,25.95215 24.63966,25.95393 "/>
    <polygon id="185" class="fil15" points="24.07909,6.1736 24.13778,6.17182 24.73747,25.95096 24.67879,25.95274 "/>
    <polygon id="186" class="fil14" points="24.11822,6.17241 24.1769,6.17064 24.7766,25.94977 24.71791,25.95155 "/>
    <polygon id="187" class="fil14" points="24.15734,6.17123 24.21603,6.16945 24.81573,25.94859 24.75704,25.95037 "/>
    <polygon id="188" class="fil14" points="24.19647,6.17004 24.25515,6.16826 24.85485,25.9474 24.79616,25.94918 "/>
    <polygon id="189" class="fil14" points="24.23559,6.16886 24.29428,6.16708 24.89398,25.94621 24.83529,25.94799 "/>
    <polygon id="190" class="fil14" points="24.27472,6.16767 24.33341,6.16589 24.9331,25.94503 24.87441,25.94681 "/>
    <polygon id="191" class="fil14" points="24.31384,6.16648 24.37253,6.1647 24.97223,25.94384 24.91354,25.94562 "/>
    <polygon id="192" class="fil14" points="24.35297,6.1653 24.41166,6.16352 25.01135,25.94266 24.95266,25.94444 "/>
    <polygon id="193" class="fil14" points="24.39209,6.16411 24.45078,6.16233 25.05048,25.94147 24.99179,25.94325 "/>
    <polygon id="194" class="fil14" points="24.43122,6.16292 24.48991,6.16114 25.0896,25.94028 25.03091,25.94206 "/>
    <polygon id="195" class="fil13" points="24.47034,6.16174 24.52903,6.15996 25.12873,25.9391 25.07004,25.94088 "/>
    <polygon id="196" class="fil13" points="24.50947,6.16055 24.56816,6.15877 25.16785,25.93791 25.10916,25.93969 "/>
    <polygon id="197" class="fil13" points="24.54859,6.15937 24.60728,6.15759 25.20698,25.93672 25.14829,25.9385 "/>
    <polygon id="198" class="fil13" points="24.58772,6.15818 24.64641,6.1564 25.2461,25.93554 25.18742,25.93732 "/>
    <polygon id="199" class="fil12" points="24.62684,6.15699 24.68553,6.15521 25.28523,25.93435 25.22654,25.93613 "/>
    <polygon id="200" class="fil11" points="24.66597,6.15581 24.72466,6.15403 25.32435,25.93317 25.26567,25.93495 "/>
    <polygon id="201" class="fil11" points="24.7051,6.15462 24.76378,6.15284 25.36348,25.93198 25.30479,25.93376 "/>
    <polygon id="202" class="fil11" points="24.74422,6.15343 24.80291,6.15165 25.4026,25.93079 25.34392,25.93257 "/>
    <polygon id="203" class="fil11" points="24.78335,6.15225 24.84203,6.15047 25.44173,25.92961 25.38304,25.93139 "/>
    <polygon id="204" class="fil11" points="24.82247,6.15106 24.88116,6.14928 25.48085,25.92842 25.42217,25.9302 "/>
    <polygon id="205" class="fil11" points="24.8616,6.14988 24.92028,6.1481 25.51998,25.92723 25.46129,25.92901 "/>
    <polygon id="206" class="fil11" points="24.90072,6.14869 24.95941,6.14691 25.55911,25.92605 25.50042,25.92783 "/>
    <polygon id="207" class="fil10" points="24.93985,6.1475 24.99853,6.14572 25.59823,25.92486 25.53954,25.92664 "/>
    <polygon id="208" class="fil10" points="24.97897,6.14632 25.03766,6.14454 25.63736,25.92368 25.57867,25.92546 "/>
    <polygon id="209" class="fil10" points="25.0181,6.14513 25.07679,6.14335 25.67648,25.92249 25.61779,25.92427 "/>
    <polygon id="210" class="fil10" points="25.05722,6.14394 25.11591,6.14216 25.71561,25.9213 25.65692,25.92308 "/>
    <polygon id="211" class="fil9" points="25.09635,6.14276 25.15504,6.14098 25.75473,25.92012 25.69604,25.9219 "/>
    <polygon id="212" class="fil9" points="25.13547,6.14157 25.19416,6.13979 25.79386,25.91893 25.73517,25.92071 "/>
    <polygon id="213" class="fil9" points="25.1746,6.14039 25.23329,6.13861 25.83298,25.91774 25.77429,25.91952 "/>
    <polygon id="214" class="fil9" points="25.21372,6.1392 25.27241,6.13742 25.87211,25.91656 25.81342,25.91834 "/>
    <polygon id="215" class="fil9" points="25.25285,6.13801 25.31154,6.13623 25.91123,25.91537 25.85254,25.91715 "/>
    <polygon id="216" class="fil8" points="25.29197,6.13683 25.35066,6.13505 25.95036,25.91419 25.89167,25.91597 "/>
    <polygon id="217" class="fil8" points="25.3311,6.13564 25.38979,6.13386 25.98948,25.913 25.93079,25.91478 "/>
    <polygon id="218" class="fil8" points="25.37022,6.13445 25.42891,6.13267 26.02861,25.91181 25.96992,25.91359 "/>
    <polygon id="219" class="fil8" points="25.40935,6.13327 25.46804,6.13149 26.06773,25.91063 26.00905,25.91241 "/>
    <polygon id="220" class="fil7" points="25.44848,6.13208 25.50716,6.1303 26.10686,25.90944 26.04817,25.91122 "/>
    <polygon id="221" class="fil7" points="25.4876,6.1309 25.54629,6.12912 26.14598,25.90825 26.0873,25.91003 "/>
    <polygon id="222" class="fil7" points="25.52673,6.12971 25.58541,6.12793 26.18511,25.90707 26.12642,25.90885 "/>
    <polygon id="223" class="fil7" points="25.56585,6.12852 25.62454,6.12674 26.22423,25.90588 26.16555,25.90766 "/>
    <polygon id="224" class="fil6" points="25.60498,6.12734 25.66366,6.12556 26.26336,25.9047 26.20467,25.90648 "/>
    <polygon id="225" class="fil6" points="25.6441,6.12615 25.70279,6.12437 26.30248,25.90351 26.2438,25.90529 "/>
    <polygon id="226" class="fil6" points="25.68323,6.12496 25.74191,6.12318 26.34161,25.90232 26.28292,25.9041 "/>
    <polygon id="227" class="fil6" points="25.72235,6.12378 25.78104,6.122 26.38074,25.90114 26.32205,25.90292 "/>
    <polygon id="228" class="fil6" points="25.76148,6.12259 25.82017,6.12081 26.41986,25.89995 26.36117,25.90173 "/>
    <polygon id="229" class="fil6" points="25.8006,6.12141 25.85929,6.11963 26.45899,25.89876 26.4003,25.90054 "/>
    <polygon id="230" class="fil6" points="25.83973,6.12022 25.89842,6.11844 26.49811,25.89758 26.43942,25.89936 "/>
    <polygon id="231" class="fil6" points="25.87885,6.11903 25.93754,6.11725 26.53724,25.89639 26.47855,25.89817 "/>
    <polygon id="232" class="fil5" points="25.91798,6.11785 25.97667,6.11607 26.57636,25.89521 26.51767,25.89699 "/>
    <polygon id="233" class="fil5" points="25.9571,6.11666 26.01579,6.11488 26.61549,25.89402 26.5568,25.8958 "/>
    <polygon id="234" class="fil5" points="25.99623,6.11547 26.05492,6.11369 26.65461,25.89283 26.59592,25.89461 "/>
    <polygon id="235" class="fil5" points="26.03535,6.11429 26.09404,6.11251 26.69374,25.89165 26.63505,25.89343 "/>
    <polygon id="236" class="fil5" points="26.07448,6.1131 26.13317,6.11132 26.73286,25.89046 26.67417,25.89224 "/>
    <polygon id="237" class="fil4" points="26.1136,6.11192 26.17229,6.11014 26.77199,25.88927 26.7133,25.89105 "/>
    <polygon id="238" class="fil4" points="26.15273,6.11073 26.21142,6.10895 26.81111,25.88809 26.75243,25.88987 "/>
    <polygon id="239" class="fil4" points="26.19186,6.10954 26.25054,6.10776 26.85024,25.8869 26.79155,25.88868 "/>
    <polygon id="240" class="fil4" points="26.23098,6.10836 26.28967,6.10658 26.88936,25.88572 26.83068,25.88749 "/>
    <polygon id="241" class="fil4" points="26.27011,6.10717 26.32879,6.10539 26.92849,25.88453 26.8698,25.88631 "/>
    <polygon id="242" class="fil4" points="26.30923,6.10598 26.36792,6.1042 26.96761,25.88334 26.90893,25.88512 "/>
    <polygon id="243" class="fil4" points="26.34836,6.1048 26.40704,6.10302 27.00674,25.88216 26.94805,25.88394 "/>
    <polygon id="244" class="fil3" points="26.38748,6.10361 26.44617,6.10183 27.04586,25.88097 26.98718,25.88275 "/>
    <polygon id="245" class="fil3" points="26.42661,6.10242 26.48529,6.10065 27.08499,25.87978 27.0263,25.88156 "/>
    <polygon id="246" class="fil3" points="26.46573,6.10124 26.52442,6.09946 27.12412,25.8786 27.06543,25.88038 "/>
    <polygon id="247" class="fil3" points="26.50486,6.10005 26.56354,6.09827 27.16324,25.87741 27.10455,25.87919 "/>
    <polygon id="248" class="fil2" points="26.54398,6.09887 26.60267,6.09709 27.20237,25.87623 27.14368,25.878 "/>
    <polygon id="249" class="fil2" points="26.58311,6.09768 26.6418,6.0959 27.24149,25.87504 27.1828,25.87682 "/>
    <polygon id="250" class="fil1" points="26.62223,6.09649 26.68092,6.09471 27.28062,25.87385 27.22193,25.87563 "/>
    <polygon id="251" class="fil1" points="26.66136,6.09531 26.72005,6.09353 27.31974,25.87267 27.26105,25.87445 "/>
    <polygon id="252" class="fil1" points="26.70048,6.09412 26.75917,6.09234 27.35887,25.87148 27.30018,25.87326 "/>
    <polygon id="253" class="fil1" points="26.73961,6.09293 26.7983,6.09116 27.39799,25.87029 27.3393,25.87207 "/>
    <polygon id="254" class="fil1" points="26.77873,6.09175 26.83742,6.08997 27.43712,25.86911 27.37843,25.87089 "/>
    <polygon id="255" class="fil1" points="26.81786,6.09056 26.87655,6.08878 27.47624,25.86792 27.41755,25.8697 "/>
    <polygon id="256" class="fil0" points="26.85698,6.08938 26.91567,6.0876 27.51537,25.86674 27.45668,25.86851 "/>
    <polygon id="257" class="fil0" points="26.89611,6.08819 26.9548,6.08641 27.55449,25.86555 27.49581,25.86733 "/>
    <polygon id="258" class="fil0" points="26.93523,6.087 26.99392,6.08522 27.59362,25.86436 27.53493,25.86614 "/>
    <polygon id="259" class="fil0" points="26.97436,6.08582 27.03305,6.08404 27.63274,25.86318 27.57406,25.86496 "/>
    <polygon id="260" class="fil0" points="27.01349,6.08463 27.07217,6.08285 27.67187,25.86199 27.61318,25.86377 "/>
    <polygon id="261" class="fil0" points="27.05261,6.08344 27.1113,6.08167 27.71099,25.8608 27.65231,25.86258 "/>
    <polygon id="262" class="fil28" points="27.09174,6.08226 27.15042,6.08048 27.75012,25.85962 27.69143,25.8614 "/>
    <polygon id="263" class="fil28" points="27.13086,6.08107 27.18955,6.07929 27.78924,25.85843 27.73056,25.86021 "/>
    <polygon id="264" class="fil29" points="27.16999,6.07989 27.22867,6.07811 27.82837,25.85725 27.76968,25.85902 "/>
    <polygon id="265" class="fil29" points="27.20911,6.0787 27.2678,6.07692 27.8675,25.85606 27.80881,25.85784 "/>
    <polygon id="266" class="fil29" points="27.24824,6.07751 27.30692,6.07573 27.90662,25.85487 27.84793,25.85665 "/>
    <polygon id="267" class="fil29" points="27.28736,6.07633 27.34605,6.07455 27.94575,25.85369 27.88706,25.85547 "/>
    <polygon id="268" class="fil30" points="27.32649,6.07514 27.38518,6.07336 27.98487,25.8525 27.92618,25.85428 "/>
    <polygon id="269" class="fil30" points="27.36561,6.07395 27.4243,6.07218 28.024,25.85131 27.96531,25.85309 "/>
    <polygon id="270" class="fil30" points="27.40474,6.07277 27.46343,6.07099 28.06312,25.85013 28.00443,25.85191 "/>
    <polygon id="271" class="fil30" points="27.44386,6.07158 27.50255,6.0698 28.10225,25.84894 28.04356,25.85072 "/>
    <polygon id="272" class="fil30" points="27.48299,6.0704 27.54168,6.06862 28.14137,25.84776 28.08268,25.84953 "/>
    <polygon id="273" class="fil30" points="27.52211,6.06921 27.5808,6.06743 28.1805,25.84657 28.12181,25.84835 "/>
    <polygon id="274" class="fil30" points="27.56124,6.06802 27.61993,6.06624 28.21962,25.84538 28.16093,25.84716 "/>
    <polygon id="275" class="fil31" points="27.60036,6.06684 27.65905,6.06506 28.25875,25.8442 28.20006,25.84598 "/>
    <polygon id="276" class="fil31" points="27.63949,6.06565 27.69818,6.06387 28.29787,25.84301 28.23919,25.84479 "/>
    <polygon id="277" class="fil31" points="27.67861,6.06446 27.7373,6.06269 28.337,25.84182 28.27831,25.8436 "/>
    <polygon id="278" class="fil31" points="27.71774,6.06328 27.77643,6.0615 28.37612,25.84064 28.31744,25.84242 "/>
    <polygon id="279" class="fil31" points="27.75687,6.06209 27.81555,6.06031 28.41525,25.83945 28.35656,25.84123 "/>
    <polygon id="280" class="fil32" points="27.79599,6.06091 27.85468,6.05913 28.45437,25.83827 28.39569,25.84004 "/>
    <polygon id="281" class="fil32" points="27.83512,6.05972 27.8938,6.05794 28.4935,25.83708 28.43481,25.83886 "/>
    <polygon id="282" class="fil32" points="27.87424,6.05853 27.93293,6.05675 28.53262,25.83589 28.47394,25.83767 "/>
    <polygon id="283" class="fil32" points="27.91337,6.05735 27.97205,6.05557 28.57175,25.83471 28.51306,25.83649 "/>
    <polygon id="284" class="fil32" points="27.95249,6.05616 28.01118,6.05438 28.61087,25.83352 28.55219,25.8353 "/>
    <polygon id="285" class="fil32" points="27.99162,6.05497 28.0503,6.0532 28.65,25.83233 28.59131,25.83411 "/>
    <polygon id="286" class="fil32" points="28.03074,6.05379 28.08943,6.05201 28.68913,25.83115 28.63044,25.83293 "/>
    <polygon id="287" class="fil32" points="28.06987,6.0526 28.12856,6.05082 28.72825,25.82996 28.66956,25.83174 "/>
    <polygon id="288" class="fil33" points="28.10899,6.05142 28.16768,6.04964 28.76738,25.82878 28.70869,25.83055 "/>
    <polygon id="289" class="fil33" points="28.14812,6.05023 28.20681,6.04845 28.8065,25.82759 28.74781,25.82937 "/>
    <polygon id="290" class="fil33" points="28.18724,6.04904 28.24593,6.04726 28.84563,25.8264 28.78694,25.82818 "/>
    <polygon id="291" class="fil33" points="28.22637,6.04786 28.28506,6.04608 28.88475,25.82522 28.82606,25.827 "/>
    <polygon id="292" class="fil34" points="28.26549,6.04667 28.32418,6.04489 28.92388,25.82403 28.86519,25.82581 "/>
    <polygon id="293" class="fil34" points="28.30462,6.04548 28.36331,6.0437 28.963,25.82284 28.90431,25.82462 "/>
    <polygon id="294" class="fil34" points="28.34374,6.0443 28.40243,6.04252 29.00213,25.82166 28.94344,25.82344 "/>
    <polygon id="295" class="fil34" points="28.38287,6.04311 28.44156,6.04133 29.04125,25.82047 28.98256,25.82225 "/>
    <polygon id="296" class="fil35" points="28.42199,6.04193 28.48068,6.04015 29.08038,25.81928 29.02169,25.82106 "/>
    <polygon id="297" class="fil35" points="28.46112,6.04074 28.51981,6.03896 29.1195,25.8181 29.06082,25.81988 "/>
    <polygon id="298" class="fil35" points="28.50025,6.03955 28.55893,6.03777 29.15863,25.81691 29.09994,25.81869 "/>
    <polygon id="299" class="fil35" points="28.53937,6.03837 28.59806,6.03659 29.19775,25.81573 29.13907,25.81751 "/>
    <polygon id="300" class="fil35" points="28.5785,6.03718 28.63718,6.0354 29.23688,25.81454 29.17819,25.81632 "/>
    <polygon id="301" class="fil36" points="28.61762,6.03599 28.67631,6.03421 29.276,25.81335 29.21732,25.81513 "/>
    <polygon id="302" class="fil36" points="28.65675,6.03481 28.71543,6.03303 29.31513,25.81217 29.25644,25.81395 "/>
    <polygon id="303" class="fil36" points="28.69587,6.03362 28.75456,6.03184 29.35425,25.81098 29.29557,25.81276 "/>
    <polygon id="304" class="fil36" points="28.735,6.03244 28.79368,6.03066 29.39338,25.80979 29.33469,25.81157 "/>
    <polygon id="305" class="fil37" points="28.77412,6.03125 28.83281,6.02947 29.43251,25.80861 29.37382,25.81039 "/>
    <polygon id="306" class="fil37" points="28.81325,6.03006 28.87194,6.02828 29.47163,25.80742 29.41294,25.8092 "/>
    <polygon id="307" class="fil37" points="28.85237,6.02888 28.91106,6.0271 29.51076,25.80624 29.45207,25.80802 "/>
    <polygon id="308" class="fil37" points="28.8915,6.02769 28.95019,6.02591 29.54988,25.80505 29.49119,25.80683 "/>
    <polygon id="309" class="fil37" points="28.93062,6.0265 28.98931,6.02472 29.58901,25.80386 29.53032,25.80564 "/>
    <polygon id="310" class="fil37" points="28.96975,6.02532 29.02844,6.02354 29.62813,25.80268 29.56944,25.80446 "/>
    <polygon id="311" class="fil37" points="29.00887,6.02413 29.06756,6.02235 29.66726,25.80149 29.60857,25.80327 "/>
    <polygon id="312" class="fil38" points="29.048,6.02295 29.10669,6.02117 29.70638,25.8003 29.64769,25.80208 "/>
    <polygon id="313" class="fil39" points="29.08712,6.02176 29.14581,6.01998 29.74551,25.79912 29.68682,25.8009 "/>
    <polygon id="314" class="fil39" points="29.12625,6.02057 29.18494,6.01879 29.78463,25.79793 29.72594,25.79971 "/>
    <polygon id="315" class="fil39" points="29.16537,6.01939 29.22406,6.01761 29.82376,25.79675 29.76507,25.79853 "/>
    <polygon id="316" class="fil39" points="29.2045,6.0182 29.26319,6.01642 29.86288,25.79556 29.8042,25.79734 "/>
    <polygon id="317" class="fil40" points="29.24362,6.01701 29.30231,6.01523 29.90201,25.79437 29.84332,25.79615 "/>
    <polygon id="318" class="fil40" points="29.28275,6.01583 29.34144,6.01405 29.94113,25.79319 29.88245,25.79497 "/>
    <polygon id="319" class="fil40" points="29.32188,6.01464 29.38056,6.01286 29.98026,25.792 29.92157,25.79378 "/>
    <polygon id="320" class="fil40" points="29.361,6.01346 29.41969,6.01168 30.01938,25.79081 29.9607,25.79259 "/>
    <polygon id="321" class="fil40" points="29.40013,6.01227 29.45881,6.01049 30.05851,25.78963 29.99982,25.79141 "/>
    <polygon id="322" class="fil40" points="29.43925,6.01108 29.49794,6.0093 30.09763,25.78844 30.03895,25.79022 "/>
    <polygon id="323" class="fil40" points="29.47838,6.0099 29.53706,6.00812 30.13676,25.78726 30.07807,25.78904 "/>
    <polygon id="324" class="fil40" points="29.5175,6.00871 29.57619,6.00693 30.17589,25.78607 30.1172,25.78785 "/>
    <polygon id="325" class="fil40" points="29.55663,6.00752 29.61531,6.00574 30.21501,25.78488 30.15632,25.78666 "/>
    <polygon id="326" class="fil41" points="29.59575,6.00634 29.65444,6.00456 30.25414,25.7837 30.19545,25.78548 "/>
    <polygon id="327" class="fil41" points="29.63488,6.00515 29.69357,6.00337 30.29326,25.78251 30.23457,25.78429 "/>
    <polygon id="328" class="fil42" points="29.674,6.00397 29.73269,6.00219 30.33239,25.78132 30.2737,25.7831 "/>
    <polygon id="329" class="fil43" points="29.71313,6.00278 29.77182,6.001 30.37151,25.78014 30.31282,25.78192 "/>
    <polygon id="330" class="fil43" points="29.75225,6.00159 29.81094,5.99981 30.41064,25.77895 30.35195,25.78073 "/>
    <polygon id="331" class="fil43" points="29.79138,6.00041 29.85007,5.99863 30.44976,25.77777 30.39107,25.77955 "/>
    <polygon id="332" class="fil43" points="29.8305,5.99922 29.88919,5.99744 30.48889,25.77658 30.4302,25.77836 "/>
    <polygon id="333" class="fil43" points="29.86963,5.99803 29.92832,5.99625 30.52801,25.77539 30.46932,25.77717 "/>
    <polygon id="334" class="fil43" points="29.90875,5.99685 29.96744,5.99507 30.56714,25.77421 30.50845,25.77599 "/>
    <polygon id="335" class="fil43" points="29.94788,5.99566 30.00657,5.99388 30.60626,25.77302 30.54758,25.7748 "/>
    <polygon id="336" class="fil43" points="29.987,5.99448 30.04569,5.9927 30.64539,25.77183 30.5867,25.77361 "/>
    <polygon id="337" class="fil43" points="30.02613,5.99329 30.08482,5.99151 30.68451,25.77065 30.62583,25.77243 "/>
    <polygon id="338" class="fil43" points="30.06526,5.9921 30.12394,5.99032 30.72364,25.76946 30.66495,25.77124 "/>
    <polygon id="339" class="fil44" points="30.10438,5.99092 30.16307,5.98914 30.76276,25.76828 30.70408,25.77006 "/>
    <polygon id="340" class="fil44" points="30.14351,5.98973 30.20219,5.98795 30.80189,25.76709 30.7432,25.76887 "/>
    <polygon id="341" class="fil45" points="30.18263,5.98854 30.24132,5.98676 30.84101,25.7659 30.78233,25.76768 "/>
    <polygon id="342" class="fil45" points="30.22176,5.98736 30.28044,5.98558 30.88014,25.76472 30.82145,25.7665 "/>
    <polygon id="343" class="fil45" points="30.26088,5.98617 30.31957,5.98439 30.91926,25.76353 30.86058,25.76531 "/>
    <polygon id="344" class="fil46" points="30.30001,5.98499 30.35869,5.98321 30.95839,25.76234 30.8997,25.76412 "/>
    <polygon id="345" class="fil46" points="30.33913,5.9838 30.39782,5.98202 30.99752,25.76116 30.93883,25.76294 "/>
    <polygon id="346" class="fil46" points="30.37826,5.98261 30.43695,5.98083 31.03664,25.75997 30.97795,25.76175 "/>
    <polygon id="347" class="fil46" points="30.41738,5.98143 30.47607,5.97965 31.07577,25.75879 31.01708,25.76056 "/>
    <polygon id="348" class="fil46" points="30.45651,5.98024 30.5152,5.97846 31.11489,25.7576 31.0562,25.75938 "/>
    <polygon id="349" class="fil46" points="30.49563,5.97905 30.55432,5.97727 31.15402,25.75641 31.09533,25.75819 "/>
    <polygon id="350" class="fil46" points="30.53476,5.97787 30.59345,5.97609 31.19314,25.75523 31.13445,25.75701 "/>
    <polygon id="351" class="fil46" points="30.57388,5.97668 30.63257,5.9749 31.23227,25.75404 31.17358,25.75582 "/>
    <polygon id="352" class="fil47" points="30.61301,5.97549 30.6717,5.97372 31.27139,25.75285 31.2127,25.75463 "/>
    <polygon id="353" class="fil48" points="30.65213,5.97431 30.71082,5.97253 31.31052,25.75167 31.25183,25.75345 "/>
    <polygon id="354" class="fil48" points="30.69126,5.97312 30.74995,5.97134 31.34964,25.75048 31.29095,25.75226 "/>
    <polygon id="355" class="fil48" points="30.73038,5.97194 30.78907,5.97016 31.38877,25.7493 31.33008,25.75107 "/>
    <polygon id="356" class="fil48" points="30.76951,5.97075 30.8282,5.96897 31.42789,25.74811 31.36921,25.74989 "/>
    <polygon id="357" class="fil48" points="30.80864,5.96956 30.86732,5.96778 31.46702,25.74692 31.40833,25.7487 "/>
    <polygon id="358" class="fil48" points="30.84776,5.96838 30.90645,5.9666 31.50614,25.74574 31.44746,25.74752 "/>
    <polygon id="359" class="fil48" points="30.88689,5.96719 30.94557,5.96541 31.54527,25.74455 31.48658,25.74633 "/>
    <polygon id="360" class="fil49" points="30.92601,5.966 30.9847,5.96423 31.58439,25.74336 31.52571,25.74514 "/>
    <polygon id="361" class="fil49" points="30.96514,5.96482 31.02382,5.96304 31.62352,25.74218 31.56483,25.74396 "/>
    <polygon id="362" class="fil49" points="31.00426,5.96363 31.06295,5.96185 31.66264,25.74099 31.60396,25.74277 "/>
    <polygon id="363" class="fil49" points="31.04339,5.96245 31.10207,5.96067 31.70177,25.73981 31.64308,25.74158 "/>
    <polygon id="364" class="fil50" points="31.08251,5.96126 31.1412,5.95948 31.7409,25.73862 31.68221,25.7404 "/>
    <polygon id="365" class="fil51" points="31.12164,5.96007 31.18033,5.95829 31.78002,25.73743 31.72133,25.73921 "/>
    <polygon id="366" class="fil51" points="31.16076,5.95889 31.14959,5.95923 31.74928,25.73836 31.76046,25.73803 "/>
   </g>
   <path id="367" class="fil52 str0" d="M17.26405 6.38023l10.91269 -0.08374 3.02723 1.45636c-0.02574,-0.01238 -0.12116,1.58283 -0.20075,3.90905l-0.60414 0.14359 0.45841 0.27728 -0.25724 0.24603 0.37721 0.13211c-0.07541,2.49101 -0.1252,5.62351 -0.06243,8.50928l-0.5767 0.18123 0.58522 0.18102c0.03982,1.57549 0.11482,3.06508 0.2395,4.32042 -3.63761,0.21357 -7.27264,-0.04926 -12.16925,0.23662l-1.62527 -2.09483c0.05449,-1.14032 0.09336,-2.2671 0.11891,-3.38451l0.41239 -0.11635 -0.20791 -0.26756 0.13275 -0.21303 -0.32073 -0.22705c0.06658,-3.87405 -0.02175,-7.64678 -0.17029,-11.49274l1.03075 -0.34361 -1.04452 -0.00928c-0.01787,-0.45226 -0.03653,-0.90559 -0.05583,-1.36029z"/>
  </g>
  <path class="fil53" d="M22.11701 8.49632l-0.51213 1.0636c-0.19204,0.39878 -0.34944,0.74764 -0.47277,1.04599l-0.074 0c-0.04229,-0.1016 -0.16269,-0.36178 -0.36237,-0.7817l-0.61197 -1.2674 0 1.31908c0,0.30716 0.01233,0.48159 0.037,0.52329 0.02467,0.0417 0.1016,0.06225 0.23022,0.06225l0.06402 0 0 0.10924c-0.15975,-0.00705 -0.28896,-0.01057 -0.3888,-0.01057 -0.07224,0 -0.21671,0.00352 -0.43225,0.01057l0 -0.10924 0.11217 0c0.07576,0 0.12627,-0.01116 0.15153,-0.03289 0.02525,-0.02173 0.04052,-0.06108 0.04639,-0.11804 0.0141,-0.16034 0.02115,-0.333 0.02115,-0.51859l0 -0.97199c0,-0.23492 -0.00529,-0.38997 -0.01527,-0.46514 -0.0047,-0.03935 -0.02173,-0.06872 -0.05051,-0.08927 -0.02937,-0.02056 -0.08751,-0.03113 -0.17443,-0.03113l-0.09103 0 0 -0.10924c0.19909,0.00705 0.32419,0.01057 0.37587,0.01057 0.06519,0 0.15799,-0.00352 0.2778,-0.01057 0.1386,0.30951 0.29835,0.65015 0.47924,1.02308l0.45163 0.93323 0.41992 -0.86451c0.14742,-0.30246 0.31597,-0.666 0.50509,-1.0918 0.1433,0.00705 0.24431,0.01057 0.30246,0.01057 0.06754,0 0.1897,-0.00352 0.36647,-0.01057l0 0.10924 -0.11217 0c-0.10102,0 -0.16327,0.01762 -0.18559,0.05227 -0.02232,0.03524 -0.03348,0.16033 -0.03348,0.37705l0 1.25506c0,0.27956 0.01175,0.43989 0.03524,0.48101 0.02349,0.04111 0.08986,0.06166 0.19792,0.06166l0.09808 0 0 0.10924c-0.15974,-0.00705 -0.31185,-0.01057 -0.45751,-0.01057 -0.16092,0 -0.32889,0.00352 -0.50449,0.01057l0 -0.10924 0.11394 0c0.09044,0 0.14506,-0.01997 0.16444,-0.05931 0.0188,-0.03935 0.02819,-0.20908 0.02819,-0.5092l0 -1.3966zm1.15523 1.24273c0.00588,0.22611 0.06343,0.3976 0.17384,0.51506 0.10983,0.11688 0.25431,0.17561 0.43285,0.17561 0.07987,0 0.15974,-0.01351 0.23844,-0.03994 0.07929,-0.02643 0.15799,-0.06636 0.23551,-0.11981l0.02937 0.02584 -0.05521 0.14448c-0.09514,0.05521 -0.19322,0.09632 -0.29365,0.12392 -0.10102,0.0276 -0.20497,0.0417 -0.31127,0.0417 -0.23316,0 -0.42051,-0.074 -0.56323,-0.22141 -0.14271,-0.14742 -0.21436,-0.3471 -0.21436,-0.59964 0,-0.19264 0.03993,-0.35943 0.12039,-0.50038 0.05286,-0.09338 0.15035,-0.17913 0.29248,-0.25842 0.14154,-0.07928 0.28014,-0.11863 0.41405,-0.11863 0.20262,0 0.36354,0.0599 0.48218,0.17913 0.11863,0.11981 0.17795,0.2866 0.17795,0.50155l-0.00352 0.10161c-0.07577,0.0182 -0.14742,0.02995 -0.21613,0.03582 -0.12275,0.00881 -0.29307,0.01351 -0.51037,0.01351l-0.42932 0zm0.00353 -0.12686c0.17795,0.00705 0.37411,0.01057 0.58906,0.01057 0.08575,0 0.16914,-0.00411 0.24961,-0.01233l0 -0.09632c0,-0.10101 -0.01997,-0.19674 -0.0605,-0.28719 -0.02525,-0.05638 -0.0693,-0.10278 -0.13214,-0.14036 -0.06343,-0.037 -0.13625,-0.0558 -0.21906,-0.0558 -0.12862,0 -0.2314,0.04699 -0.30834,0.14154 -0.07694,0.09397 -0.11628,0.2408 -0.11863,0.43989zm1.88172 -0.3747l0.25958 -0.23139c0.03054,-0.02761 0.06343,-0.04816 0.0975,-0.0605 0.07576,-0.02525 0.15152,-0.03817 0.2267,-0.03817 0.12274,0 0.22846,0.02467 0.31773,0.07459 0.08927,0.04992 0.15328,0.11511 0.19263,0.19498 0.03876,0.07929 0.05815,0.20438 0.05815,0.37411l-0.00705 0.54208c0,0.18735 0.00822,0.29483 0.02408,0.32361 0.02173,0.037 0.06401,0.0552 0.12685,0.0552l0.12393 0 0 0.09867c-0.12275,-0.00705 -0.22905,-0.01057 -0.31832,-0.01057 -0.08751,0 -0.18089,0.00352 -0.28073,0.01057 0.02114,-0.22317 0.03171,-0.52505 0.03171,-0.90562 0,-0.15329 -0.01351,-0.26194 -0.03994,-0.32595 -0.02701,-0.06402 -0.07223,-0.1157 -0.13566,-0.15505 -0.06343,-0.03876 -0.13919,-0.05814 -0.22846,-0.05814 -0.11042,0 -0.20439,0.02819 -0.28132,0.08398 -0.07753,0.05638 -0.1251,0.11805 -0.1433,0.18617 -0.01116,0.04464 -0.01704,0.16151 -0.01704,0.35062 0,0.20967 0.00177,0.40466 0.00529,0.58437 0.00117,0.05403 0.0094,0.08751 0.02408,0.10161 0.02936,0.02642 0.07694,0.03934 0.1433,0.03934l0.12333 0 0 0.09867c-0.19557,-0.00705 -0.35062,-0.01057 -0.46631,-0.01057 -0.12275,0 -0.26194,0.00352 -0.41816,0.01057l0 -0.09867 0.1245 0c0.08575,0 0.13567,-0.01996 0.14977,-0.05931 0.01468,-0.03935 0.02173,-0.27721 0.02173,-0.71299 0,-0.19557 -0.00235,-0.34886 -0.00705,-0.45986 -0.00235,-0.037 -0.01116,-0.06225 -0.0276,-0.07576 -0.01586,-0.01351 -0.06167,-0.02056 -0.13685,-0.02056l-0.1245 0 0 -0.09866c0.09866,-0.01175 0.18735,-0.02702 0.26546,-0.04699 0.0787,-0.01997 0.1662,-0.04992 0.26428,-0.09044 0.01057,-0.0047 0.01997,-0.00705 0.02937,-0.00705 0.01821,0 0.0276,0.01292 0.0276,0.03935l-0.00176 0.06578 -0.00352 0.23198zm2.87191 1.33318l0.01762 -0.30833 -0.10102 0.10982c-0.07929,0.08634 -0.15975,0.14624 -0.24138,0.18148 -0.08164,0.03465 -0.18265,0.05227 -0.30246,0.05227 -0.10337,0 -0.19205,-0.02173 -0.26605,-0.06519 -0.07459,-0.04287 -0.12862,-0.09926 -0.1621,-0.16797 -0.03406,-0.06871 -0.05109,-0.17795 -0.05109,-0.32713 0,-0.07752 0.00176,-0.16738 0.00528,-0.27016l0.00529 -0.27486c0,-0.19263 -0.00529,-0.29952 -0.01645,-0.32125 -0.01116,-0.02173 -0.04816,-0.0323 -0.11041,-0.0323l-0.15505 0 0 -0.09515c0.1574,-0.01409 0.30305,-0.04404 0.43578,-0.08927l0.14448 -0.0552c0.01938,0 0.02936,0.01409 0.02936,0.04287l-0.01174 0.17502c-0.01586,0.24255 -0.02349,0.46749 -0.02349,0.67598 0,0.20791 0.0088,0.34064 0.02584,0.39878 0.01703,0.05756 0.05285,0.10572 0.10747,0.14389 0.05462,0.03818 0.12157,0.05756 0.20027,0.05756 0.10631,0 0.20321,-0.03407 0.29189,-0.10219 0.0881,-0.06872 0.14624,-0.13743 0.17326,-0.20673 0.01468,-0.03994 0.02232,-0.15975 0.02232,-0.36002 0,-0.33711 -0.00646,-0.52035 -0.0188,-0.54972 -0.01174,-0.02408 -0.06343,-0.03582 -0.15505,-0.03582l-0.13625 0 0 -0.09515c0.11805,-0.01409 0.21906,-0.03112 0.30129,-0.04992 0.08281,-0.01879 0.17031,-0.04757 0.26193,-0.08574 0.01175,-0.00588 0.02232,-0.00881 0.03113,-0.00881 0.01938,0 0.02937,0.01057 0.02937,0.0323l-0.00646 0.15975c-0.01704,0.39114 -0.02526,0.7353 -0.02526,1.03306 0,0.1668 0.00881,0.26253 0.02584,0.28602 0.02526,0.03583 0.07988,0.05344 0.16327,0.05344l0.09984 0 0 0.09867c-0.1433,-0.00705 -0.26487,-0.01057 -0.36471,-0.01057 -0.07459,0 -0.14918,0.00352 -0.22376,0.01057zm-0.60551 -1.79715l-0.11688 0 0.50861 -0.48687c0.04287,-0.04111 0.07282,-0.06695 0.09103,-0.07635 0.01879,-0.00998 0.03935,-0.01468 0.06225,-0.01468 0.03289,0 0.0605,0.00998 0.08164,0.02995 0.02114,0.01997 0.03171,0.04522 0.03171,0.07517 0,0.02702 -0.01116,0.05404 -0.03347,0.07988 -0.02232,0.02584 -0.07635,0.0646 -0.16269,0.11628l-0.4622 0.27662z"/>
  <polygon class="fil54 str1" points="17.38469,23.82185 18.97219,25.8856 19.63365,23.84831 "/>
  <polygon class="fil55 str1" points="28.20615,6.30643 28.3649,7.92039 31.19594,7.76164 "/>
 </g>
</svg>
